<?xml version="1.0" encoding="UTF-8" standalone="no"?>
<!DOCTYPE svg PUBLIC "-//W3C//DTD SVG 1.1//EN" "http://www.w3.org/Graphics/SVG/1.1/DTD/svg11.dtd">
<svg width="100%" height="100%" viewBox="0 0 64 64" version="1.1" xmlns="http://www.w3.org/2000/svg" xmlns:xlink="http://www.w3.org/1999/xlink" xml:space="preserve" xmlns:serif="http://www.serif.com/" style="fill-rule:evenodd;clip-rule:evenodd;stroke-linecap:round;stroke-linejoin:round;stroke-miterlimit:1.5;">
    <path d="M24.633,13.658L32.969,12.012C32.969,12.012 39.22,16.07 39.549,17.496C39.878,18.922 37.246,21.664 38.452,24.406C39.659,27.148 44.375,30.053 46.349,32C48.323,33.947 49.968,33.838 48.871,36.36C47.775,38.883 45.581,41.844 41.743,43.379C37.904,44.915 33.627,43.709 29.678,44.367C25.73,45.025 25.949,45.573 22.22,49.083C18.491,52.592 18.93,55.224 14.982,52.263C11.034,49.302 8.84,49.192 8.511,45.025C8.182,40.857 6.756,38.992 9.937,36.36C13.117,33.728 16.408,35.646 17.175,32C17.943,28.354 16.737,26.49 13.666,23.199C10.595,19.909 9.169,20.128 9.827,17.825C10.485,15.522 12.788,13.658 14.653,12.89C16.517,12.122 18.82,11.903 19.808,12.561C20.795,13.219 24.633,13.658 24.633,13.658Z" style="fill:none;stroke:rgb(35,31,32);stroke-width:1px;"/>
</svg>
